<svg width="24" height="10" viewBox="0 0 24 10" fill="none" xmlns="http://www.w3.org/2000/svg">
<path d="M3.51313 5.76762H4.90313V7.30762H0.193125V5.76762H1.73313V2.05762H1.45313L0.193125 2.92762V1.18762L1.44313 0.307617H3.51313V5.76762ZM7.77117 1.97762C8.34451 1.97762 8.77784 2.16762 9.07117 2.54762H9.35117V0.0376166H11.0912V7.30762H9.41117V6.86762H9.13117C8.82451 7.24762 8.37117 7.43762 7.77117 7.43762C7.10451 7.43762 6.57784 7.18762 6.19117 6.68762C5.80451 6.18095 5.61117 5.52095 5.61117 4.70762C5.61117 3.90095 5.80784 3.24428 6.20117 2.73762C6.59451 2.23095 7.11784 1.97762 7.77117 1.97762ZM7.60117 5.64762C7.76784 5.89428 8.02451 6.01762 8.37117 6.01762C8.71784 6.01762 8.97784 5.89428 9.15117 5.64762C9.33117 5.40095 9.42117 5.08762 9.42117 4.70762C9.42117 4.32762 9.33117 4.01428 9.15117 3.76762C8.97784 3.52095 8.71784 3.39762 8.37117 3.39762C8.02451 3.39762 7.76784 3.52095 7.60117 3.76762C7.43451 4.01428 7.35117 4.32762 7.35117 4.70762C7.35117 5.08762 7.43451 5.40095 7.60117 5.64762ZM14.7132 1.97762C16.3665 1.97762 17.1932 2.66095 17.1932 4.02762V7.30762H15.6032V6.90762H15.3232C15.0099 7.26095 14.5532 7.43762 13.9532 7.43762C13.3999 7.43762 12.9565 7.26762 12.6232 6.92762C12.2965 6.58095 12.1332 6.16762 12.1332 5.68762C12.1332 5.22762 12.3165 4.82428 12.6832 4.47762C13.0499 4.13095 13.5965 3.95762 14.3232 3.95762H15.5232V3.86762C15.5232 3.42762 15.2865 3.20762 14.8132 3.20762C14.3932 3.20762 14.1632 3.35762 14.1232 3.65762H12.4032C12.4165 3.15762 12.6365 2.75428 13.0632 2.44762C13.4965 2.13428 14.0465 1.97762 14.7132 1.97762ZM15.5232 5.25762V4.94762H14.6832C14.4365 4.94762 14.2399 5.00095 14.0932 5.10762C13.9465 5.20762 13.8732 5.35428 13.8732 5.54762C13.8732 5.95428 14.1199 6.15762 14.6132 6.15762C14.8932 6.15762 15.1132 6.07428 15.2732 5.90762C15.4399 5.73428 15.5232 5.51762 15.5232 5.25762ZM22.1207 2.10762H23.8407L20.6907 9.30762H18.9707L20.0607 6.73762L17.8807 2.10762H19.6207L20.7907 4.62762H21.0707L22.1207 2.10762Z" fill="#003771"/>
</svg>
