<svg width="52" height="52" viewBox="0 0 52 52" fill="none" xmlns="http://www.w3.org/2000/svg">
<circle cx="26" cy="26" r="26" fill="#F5F6F7"/>
<path d="M26 34.8763L31.5 29.4087C32.5877 28.3273 33.3283 26.9496 33.6284 25.4497C33.9284 23.9499 33.7744 22.3953 33.1857 20.9825C32.5969 19.5697 31.6 18.3622 30.321 17.5126C29.042 16.6631 27.5383 16.2096 26 16.2096C24.4617 16.2096 22.958 16.6631 21.679 17.5126C20.4 18.3622 19.4031 19.5697 18.8143 20.9825C18.2256 22.3953 18.0716 23.9499 18.3716 25.4497C18.6717 26.9496 19.4123 28.3273 20.5 29.4087L26 34.8763ZM26 38L18.9289 30.9705C17.5304 29.5802 16.578 27.8089 16.1921 25.8805C15.8063 23.9521 16.0043 21.9533 16.7612 20.1368C17.5181 18.3203 18.7998 16.7677 20.4443 15.6754C22.0888 14.583 24.0222 14 26 14C27.9778 14 29.9112 14.583 31.5557 15.6754C33.2002 16.7677 34.4819 18.3203 35.2388 20.1368C35.9957 21.9533 36.1937 23.9521 35.8079 25.8805C35.422 27.8089 34.4696 29.5802 33.0711 30.9705L26 38V38ZM26 26.1502C26.5894 26.1502 27.1546 25.9174 27.5713 25.5031C27.9881 25.0888 28.2222 24.5269 28.2222 23.941C28.2222 23.3551 27.9881 22.7932 27.5713 22.3789C27.1546 21.9646 26.5894 21.7319 26 21.7319C25.4106 21.7319 24.8454 21.9646 24.4287 22.3789C24.0119 22.7932 23.7778 23.3551 23.7778 23.941C23.7778 24.5269 24.0119 25.0888 24.4287 25.5031C24.8454 25.9174 25.4106 26.1502 26 26.1502ZM26 28.3593C24.8213 28.3593 23.6908 27.8938 22.8573 27.0652C22.0238 26.2366 21.5556 25.1128 21.5556 23.941C21.5556 22.7692 22.0238 21.6454 22.8573 20.8168C23.6908 19.9883 24.8213 19.5228 26 19.5228C27.1787 19.5228 28.3092 19.9883 29.1427 20.8168C29.9762 21.6454 30.4444 22.7692 30.4444 23.941C30.4444 25.1128 29.9762 26.2366 29.1427 27.0652C28.3092 27.8938 27.1787 28.3593 26 28.3593Z" fill="#060606"/>
</svg>
