<svg width="52" height="52" viewBox="0 0 52 52" fill="none" xmlns="http://www.w3.org/2000/svg">
<circle cx="26" cy="26" r="26" fill="#F5F6F7"/>
<g clip-path="url(#clip0_513_1642)">
<path d="M16.5497 27.5384C15.8113 27.5384 15.192 27.2922 14.692 26.7999C14.1997 26.2999 13.9536 25.6615 13.9536 24.8845C13.9536 24.0922 14.2113 23.4268 14.7267 22.8884C15.2497 22.3422 15.9459 22.0692 16.8151 22.0692C17.769 22.0692 18.5228 22.3884 19.0767 23.0268C19.6305 23.6653 19.9074 24.6807 19.9074 26.073C19.9074 26.9268 19.7959 27.6768 19.5728 28.323C19.3574 28.9615 19.0074 29.4768 18.5228 29.8692C18.0382 30.2615 17.442 30.4576 16.7343 30.4576C16.042 30.4576 15.4651 30.2692 15.0036 29.8922C14.542 29.5076 14.2651 29.0192 14.1728 28.4268H15.4997C15.6843 29.0192 16.1036 29.3153 16.7574 29.3153C17.3113 29.3153 17.7497 29.1038 18.0728 28.6807C18.3959 28.2576 18.5767 27.6422 18.6151 26.8345H18.3382C17.9074 27.3038 17.3113 27.5384 16.5497 27.5384ZM17.9574 23.6615C17.6651 23.3692 17.292 23.223 16.8382 23.223C16.3843 23.223 16.0151 23.3653 15.7305 23.6499C15.4459 23.9268 15.3036 24.323 15.3036 24.8384C15.3036 25.3538 15.4459 25.7461 15.7305 26.0153C16.0151 26.2845 16.3882 26.4192 16.8497 26.4192C17.3036 26.4192 17.6728 26.2845 17.9574 26.0153C18.2497 25.7384 18.3959 25.3499 18.3959 24.8499C18.3959 24.3422 18.2497 23.9461 17.9574 23.6615ZM21.9543 23.1192C22.5159 22.4192 23.2582 22.0692 24.1812 22.0692C25.1043 22.0692 25.8466 22.4192 26.4082 23.1192C26.9697 23.8192 27.2505 24.8692 27.2505 26.2692C27.2505 27.6692 26.9697 28.7192 26.4082 29.4192C25.8466 30.1115 25.1043 30.4576 24.1812 30.4576C23.2582 30.4576 22.5159 30.1115 21.9543 29.4192C21.3928 28.7192 21.112 27.6692 21.112 26.2692C21.112 24.8692 21.3928 23.8192 21.9543 23.1192ZM22.8659 28.4384C23.1351 28.9845 23.5736 29.2576 24.1812 29.2576C24.7889 29.2576 25.2274 28.9845 25.4966 28.4384C25.7659 27.8922 25.9005 27.1692 25.9005 26.2692C25.9005 24.2692 25.3274 23.2692 24.1812 23.2692C23.0351 23.2692 22.462 24.2692 22.462 26.2692C22.462 27.1692 22.5966 27.8922 22.8659 28.4384ZM30.9975 30.3076H29.9706L34.8629 22.2307H35.8783L30.9975 30.3076ZM28.8283 22.6922C29.159 22.2768 29.6244 22.0692 30.2244 22.0692C30.8244 22.0692 31.2898 22.2768 31.6206 22.6922C31.9514 23.0999 32.1167 23.6192 32.1167 24.2499C32.1167 24.8961 31.9514 25.423 31.6206 25.8307C31.2898 26.2307 30.8244 26.4307 30.2244 26.4307C29.6167 26.4307 29.1514 26.2307 28.8283 25.8307C28.5052 25.423 28.3437 24.8961 28.3437 24.2499C28.3437 23.6192 28.5052 23.0999 28.8283 22.6922ZM29.509 25.2307C29.6706 25.4692 29.909 25.5884 30.2244 25.5884C30.5398 25.5884 30.7783 25.4692 30.9398 25.2307C31.1014 24.9845 31.1821 24.6576 31.1821 24.2499C31.1821 23.8422 31.1014 23.5192 30.9398 23.2807C30.7783 23.0345 30.5398 22.9115 30.2244 22.9115C29.9167 22.9115 29.6821 23.0345 29.5206 23.2807C29.359 23.5192 29.2783 23.8422 29.2783 24.2499C29.2783 24.6576 29.3552 24.9845 29.509 25.2307ZM34.2167 26.7192C34.5475 26.3038 35.0129 26.0961 35.6129 26.0961C36.2129 26.0961 36.6783 26.3038 37.009 26.7192C37.3398 27.1268 37.5052 27.6461 37.5052 28.2768C37.5052 28.923 37.3398 29.4499 37.009 29.8576C36.6783 30.2576 36.2129 30.4576 35.6129 30.4576C35.0129 30.4576 34.5475 30.2576 34.2167 29.8576C33.886 29.4499 33.7206 28.923 33.7206 28.2768C33.7206 27.6461 33.886 27.1268 34.2167 26.7192ZM34.8975 29.2576C35.059 29.4961 35.2975 29.6153 35.6129 29.6153C35.9283 29.6153 36.1667 29.4961 36.3283 29.2576C36.4898 29.0115 36.5706 28.6845 36.5706 28.2768C36.5706 27.8768 36.4898 27.5538 36.3283 27.3076C36.1667 27.0615 35.9283 26.9384 35.6129 26.9384C35.2975 26.9384 35.059 27.0615 34.8975 27.3076C34.736 27.5461 34.6552 27.8692 34.6552 28.2768C34.6552 28.6845 34.736 29.0115 34.8975 29.2576Z" fill="#060606"/>
</g>
<defs>
<clipPath id="clip0_513_1642">
<rect width="24" height="24" fill="white" transform="translate(14 14)"/>
</clipPath>
</defs>
</svg>
