<svg width="52" height="52" viewBox="0 0 52 52" fill="none" xmlns="http://www.w3.org/2000/svg">
<circle cx="26" cy="26" r="26" fill="#F5F6F7"/>
<g clip-path="url(#clip0_513_1612)">
<path d="M19.941 25.8999V26.223C20.218 26.3615 20.4564 26.5807 20.6564 26.8807C20.8641 27.173 20.968 27.5076 20.968 27.8845C20.968 28.6153 20.7295 29.2038 20.2526 29.6499C19.7757 30.0884 19.0603 30.3076 18.1064 30.3076H13.941V22.0692H17.9795C18.8795 22.0692 19.5641 22.2807 20.0334 22.7038C20.5103 23.1268 20.7487 23.6653 20.7487 24.3192C20.7487 24.673 20.6718 24.9922 20.518 25.2768C20.3718 25.5538 20.1795 25.7615 19.941 25.8999ZM16.0872 23.7999V25.2192H17.691C18.2603 25.2192 18.5449 24.9845 18.5449 24.5153C18.5449 24.0384 18.2526 23.7999 17.668 23.7999H16.0872ZM16.0872 28.5422H17.7603C18.0449 28.5422 18.2834 28.4807 18.4757 28.3576C18.668 28.2345 18.7641 28.0384 18.7641 27.7692C18.7641 27.223 18.441 26.9499 17.7949 26.9499H16.0872V28.5422ZM27.4674 27.5038H29.6712C29.5558 28.3961 29.1828 29.1115 28.552 29.6499C27.9289 30.1884 27.1174 30.4576 26.1174 30.4576C24.8635 30.4576 23.8789 30.073 23.1635 29.3038C22.4558 28.5268 22.102 27.4884 22.102 26.1884C22.102 24.8884 22.4558 23.8538 23.1635 23.0845C23.8789 22.3076 24.8635 21.9192 26.1174 21.9192C27.0712 21.9192 27.852 22.1692 28.4597 22.6692C29.0751 23.1615 29.4558 23.8115 29.602 24.6192H27.3751C27.2366 24.0807 26.8174 23.8115 26.1174 23.8115C25.5328 23.8115 25.0828 24.0307 24.7674 24.4692C24.452 24.8999 24.2943 25.473 24.2943 26.1884C24.2943 26.9038 24.452 27.4807 24.7674 27.9192C25.0828 28.3499 25.5328 28.5653 26.1174 28.5653C26.4943 28.5653 26.7981 28.473 27.0289 28.2884C27.2674 28.1038 27.4135 27.8422 27.4674 27.5038ZM36.433 27.0307H33.2484V28.4153H37.5292V30.3076H31.1023V22.0692H37.4253V23.9615H33.2484V25.1845H36.433V27.0307Z" fill="#060606"/>
</g>
<defs>
<clipPath id="clip0_513_1612">
<rect width="24" height="24" fill="white" transform="translate(14 14)"/>
</clipPath>
</defs>
</svg>
