<svg width="52" height="52" viewBox="0 0 52 52" fill="none" xmlns="http://www.w3.org/2000/svg">
<circle cx="26" cy="26" r="26" fill="#F5F6F7"/>
<path d="M33 34H19V35C19 35.2652 18.8946 35.5196 18.7071 35.7071C18.5196 35.8946 18.2652 36 18 36H17C16.7348 36 16.4804 35.8946 16.2929 35.7071C16.1054 35.5196 16 35.2652 16 35V25L18.48 19.212C18.6343 18.852 18.891 18.5452 19.2181 18.3298C19.5452 18.1143 19.9283 17.9997 20.32 18H31.68C32.0713 18 32.4541 18.1149 32.7808 18.3303C33.1075 18.5458 33.3638 18.8523 33.518 19.212L36 25V35C36 35.2652 35.8946 35.5196 35.7071 35.7071C35.5196 35.8946 35.2652 36 35 36H34C33.7348 36 33.4804 35.8946 33.2929 35.7071C33.1054 35.5196 33 35.2652 33 35V34ZM34 27H18V32H34V27ZM18.176 25H33.824L31.681 20H20.32L18.177 25H18.176ZM20.5 31C20.1022 31 19.7206 30.842 19.4393 30.5607C19.158 30.2794 19 29.8978 19 29.5C19 29.1022 19.158 28.7206 19.4393 28.4393C19.7206 28.158 20.1022 28 20.5 28C20.8978 28 21.2794 28.158 21.5607 28.4393C21.842 28.7206 22 29.1022 22 29.5C22 29.8978 21.842 30.2794 21.5607 30.5607C21.2794 30.842 20.8978 31 20.5 31V31ZM31.5 31C31.1022 31 30.7206 30.842 30.4393 30.5607C30.158 30.2794 30 29.8978 30 29.5C30 29.1022 30.158 28.7206 30.4393 28.4393C30.7206 28.158 31.1022 28 31.5 28C31.8978 28 32.2794 28.158 32.5607 28.4393C32.842 28.7206 33 29.1022 33 29.5C33 29.8978 32.842 30.2794 32.5607 30.5607C32.2794 30.842 31.8978 31 31.5 31V31Z" fill="#060606"/>
</svg>
