<svg width="52" height="52" viewBox="0 0 52 52" fill="none" xmlns="http://www.w3.org/2000/svg">
<circle cx="26" cy="26" r="26" fill="#F5F6F7"/>
<path fill-rule="evenodd" clip-rule="evenodd" d="M22.8799 14.077C22.5874 14.226 22.5314 14.3733 22.5148 15.0381C22.5 15.6301 22.4996 15.6318 22.3841 15.6618C22.2843 15.6877 22.2175 15.6406 21.8986 15.3189C21.4787 14.8955 21.293 14.8093 20.9852 14.8952C20.8375 14.9365 20.6159 15.14 19.7499 16.0301C18.6118 17.1999 18.516 17.3356 18.58 17.6878C18.6048 17.8246 18.6994 17.9564 19.0014 18.2753C19.3621 18.6561 19.3871 18.6949 19.3405 18.8005C19.2918 18.9109 19.2726 18.915 18.7317 18.9301C18.2406 18.9438 18.1559 18.9583 18.0312 19.0502C17.7605 19.2498 17.7419 19.3508 17.7419 20.629V21.7824H17.4045C16.7841 21.7824 16.628 21.9142 16.4053 22.626C15.5879 25.2384 16.0195 28.0241 17.5857 30.2462C18.1016 30.9783 18.7586 31.6417 19.4891 32.1687C19.9416 32.495 20.6988 32.9185 21.1325 33.0877L21.4144 33.1977L21.4274 35.332C21.4399 37.3689 21.4446 37.4736 21.5313 37.6255C21.5812 37.7131 21.6797 37.8292 21.7501 37.8834C21.8778 37.9818 21.8907 37.9822 25.9479 37.9942C30.4914 38.0076 30.2134 38.0269 30.4364 37.6821C30.5393 37.523 30.5394 37.5207 30.5394 35.6073V33.6919L31.6172 33.6918C32.8235 33.6917 32.918 33.6713 33.1139 33.3685C33.216 33.2105 33.2169 33.1949 33.2169 31.5984V29.9878H34.3302C35.5211 29.9878 35.6394 29.9689 35.8333 29.7476C35.963 29.5997 36.0304 29.3275 35.9868 29.1278C35.9668 29.0365 35.3652 28.0657 34.5988 26.8882L33.2461 24.8099L33.1862 24.3159C33.1072 23.6647 33.0139 23.2249 32.8273 22.6241C32.6012 21.8963 32.457 21.7824 31.7617 21.7824H31.3563V20.6485C31.3563 19.5993 31.3493 19.4996 31.2628 19.315C31.1179 19.0058 30.908 18.9222 30.2763 18.9222H29.7696L29.7401 18.8006C29.7145 18.695 29.7558 18.6314 30.0519 18.32C30.4602 17.8906 30.494 17.8285 30.494 17.5091V17.262L29.3708 16.0981C28.4686 15.1632 28.214 14.9248 28.0768 14.8866C27.7869 14.8059 27.6142 14.8902 27.2022 15.3136C26.8762 15.6487 26.8193 15.6891 26.7123 15.6613L26.5912 15.6299V15.1106C26.5912 14.4625 26.5098 14.245 26.2111 14.0956C26.028 14.004 25.941 13.9991 24.5234 14.0001C23.2397 14.001 23.0078 14.0119 22.8799 14.077ZM25.2298 15.8291C25.2298 16.5041 25.3197 16.6429 25.8935 16.8536C26.0901 16.9258 26.353 17.0384 26.4778 17.1038C26.9629 17.3581 27.1681 17.312 27.6242 16.8462L27.9083 16.5561L28.3937 17.0575L28.879 17.5589L28.5557 17.9035C28.16 18.3251 28.1128 18.4807 28.2696 18.8469C28.3261 18.9786 28.4509 19.2951 28.547 19.5502C28.6432 19.8053 28.7581 20.0561 28.8024 20.1076C28.9416 20.2691 29.1527 20.3289 29.5849 20.3289H29.9948V21.0556V21.7824H28.5875H27.1801L27.2147 21.5831C27.2337 21.4735 27.2466 21.1834 27.2435 20.9384C27.2337 20.1851 26.9852 19.6018 26.4328 19.0353C25.3627 17.9378 23.7128 17.9475 22.6379 19.0577C22.0484 19.6664 21.7975 20.3308 21.839 21.1729C21.8511 21.4178 21.8758 21.6552 21.8938 21.7003C21.9247 21.7775 21.8418 21.7824 20.515 21.7824H19.1034V21.0556V20.3289H19.5136C20.1397 20.3289 20.3169 20.2094 20.4874 19.6724C20.5324 19.5306 20.6377 19.2651 20.7213 19.0823C20.8807 18.7338 20.9164 18.441 20.8227 18.251C20.795 18.1947 20.6472 18.0165 20.4945 17.855L20.2168 17.5614L20.7034 17.0587L21.19 16.556L21.4982 16.872C21.9411 17.326 22.1243 17.3615 22.6431 17.0939C22.7804 17.023 23.0254 16.9164 23.1877 16.857C23.3499 16.7976 23.5365 16.7107 23.6023 16.664C23.7837 16.5352 23.8684 16.2613 23.8684 15.8033V15.4057H24.5491H25.2298V15.8291ZM25.1032 19.7554C25.369 19.8769 25.6349 20.1517 25.7734 20.4481C25.9162 20.7538 25.926 21.2905 25.7939 21.5714L25.7056 21.759L24.5447 21.7715L23.3837 21.7839L23.297 21.5851C23.1705 21.2946 23.178 20.7018 23.3115 20.4407C23.5109 20.0509 23.8422 19.763 24.2011 19.6678C24.4274 19.6077 24.8753 19.6512 25.1032 19.7554ZM31.6313 23.3873C31.7306 23.7682 31.807 24.1993 31.8329 24.5251C31.8924 25.2733 31.8278 25.1386 32.9707 26.8945C33.5554 27.7927 34.0337 28.5384 34.0337 28.5515C34.0337 28.5647 33.6471 28.582 33.1747 28.59C32.2177 28.6062 32.1613 28.6236 31.9689 28.9611C31.8838 29.1103 31.8773 29.2193 31.8641 30.7005L31.85 32.2806L30.7441 32.2947C29.7021 32.3079 29.6308 32.3144 29.5102 32.4074C29.4398 32.4616 29.3413 32.5777 29.2914 32.6653C29.2054 32.8162 29.2 32.9223 29.1874 34.7117L29.1741 36.5989H25.978H22.7819L22.7693 34.4853L22.7566 32.3718L22.5938 32.2177C22.488 32.1175 22.2975 32.0179 22.0492 31.9328C19.0759 30.9144 17.1485 27.9392 17.3818 24.7279C17.419 24.2154 17.5109 23.6579 17.6103 23.3414L17.6582 23.189H24.6189H31.5797L31.6313 23.3873Z" fill="black"/>
</svg>
