<svg width="52" height="52" viewBox="0 0 52 52" fill="none" xmlns="http://www.w3.org/2000/svg">
<circle cx="26" cy="26" r="26" fill="#F5F6F7"/>
<path fill-rule="evenodd" clip-rule="evenodd" d="M22.7545 15.0282C21.8928 15.1843 21.416 15.4845 20.2812 16.5853C19.8301 17.023 19.3962 17.4256 19.3171 17.4799C19.238 17.5342 18.7732 17.7847 18.2844 18.0367C17.2086 18.591 17.0244 18.7119 16.5979 19.1427C16.0044 19.7421 15.7431 20.39 15.5247 21.8029C15.4571 22.2401 15.3709 22.7186 15.3332 22.8661C15.2954 23.0137 15.0452 23.5733 14.777 24.1097C14.1617 25.3402 14 25.8381 14 26.5016C14 27.1651 14.1617 27.6629 14.777 28.8934C15.0452 29.4298 15.2954 29.9895 15.3332 30.137C15.3709 30.2845 15.4571 30.763 15.5247 31.2002C15.7244 32.4923 15.9543 33.1207 16.438 33.6965C16.7898 34.1153 17.2544 34.4357 18.2668 34.9574C18.7653 35.2143 19.238 35.4689 19.3171 35.5232C19.3962 35.5775 19.8301 35.9801 20.2812 36.4178C21.3103 37.4162 21.6602 37.6598 22.3912 37.8873C22.9047 38.047 23.7824 38.0366 24.8047 37.8585C25.7732 37.6899 26.2219 37.6901 27.2188 37.86C28.1078 38.0115 29.0317 38.0411 29.4688 37.9322C30.2006 37.7498 30.6747 37.4307 31.7188 36.4178C32.1699 35.9801 32.6038 35.5775 32.6829 35.5232C32.762 35.4689 33.2268 35.2184 33.7156 34.9664C34.7914 34.4121 34.9756 34.2912 35.4021 33.8604C35.9956 33.261 36.2569 32.6131 36.4753 31.2002C36.5429 30.763 36.6287 30.2845 36.666 30.137C36.7032 29.9895 36.9537 29.4298 37.2226 28.8934C37.8374 27.6666 38 27.1665 38 26.5016C38 25.8366 37.8374 25.3365 37.2226 24.1097C36.9537 23.5733 36.7032 23.0137 36.666 22.8661C36.6287 22.7186 36.5429 22.2401 36.4753 21.8029C36.2569 20.39 35.9956 19.7421 35.4021 19.1427C34.9756 18.7119 34.7914 18.591 33.7156 18.0367C33.2268 17.7847 32.762 17.5342 32.6829 17.4799C32.6038 17.4256 32.1699 17.023 31.7188 16.5853C30.689 15.5862 30.3382 15.3421 29.6088 15.1165C29.0861 14.9548 28.2505 14.9637 27.2188 15.1419C26.239 15.3112 25.749 15.3123 24.8047 15.1475C24.0535 15.0164 23.12 14.9621 22.7545 15.0282ZM24.5194 16.9865C25.1828 17.0943 25.5655 17.1318 26 17.1318C26.4345 17.1318 26.8172 17.0943 27.4806 16.9865C29.1467 16.7159 29.2213 16.7412 30.5056 18.01C31.3964 18.89 31.6442 19.0667 32.8354 19.6714C34.2775 20.4033 34.3668 20.5258 34.6267 22.1284C34.8402 23.4446 34.8927 23.608 35.495 24.8317C36.319 26.5055 36.319 26.4976 35.495 28.1714C34.8927 29.3951 34.8402 29.5585 34.6267 30.8747C34.5494 31.3513 34.452 31.8425 34.4102 31.9662C34.22 32.5292 33.9403 32.7741 32.88 33.3061C31.6885 33.9039 31.4073 34.1045 30.4754 35.0219C29.2284 36.2496 29.1201 36.2859 27.5 36.0208C26.2676 35.8192 25.7324 35.8192 24.5 36.0208C22.8845 36.2851 22.7618 36.2446 21.5508 35.0467C21.1233 34.6237 20.6338 34.1792 20.4631 34.0589C20.2925 33.9386 19.7756 33.6461 19.3145 33.4088C17.6622 32.5586 17.625 32.5085 17.3525 30.7656C17.1681 29.5872 17.1024 29.3858 16.5048 28.1714C15.6811 26.4976 15.6811 26.5055 16.5048 24.8317C17.1024 23.6173 17.1681 23.4159 17.3525 22.2375C17.6181 20.5389 17.7033 20.4186 19.1728 19.6687C20.372 19.0568 20.6117 18.8856 21.4847 18.0169C22.2341 17.2713 22.5999 16.9835 22.9107 16.895C23.1933 16.8146 23.6048 16.838 24.5194 16.9865ZM29.2812 23.3241C29.1786 23.3678 28.3405 24.1626 27.0433 25.446L24.9695 27.498L23.9495 26.4916C22.8904 25.4464 22.6897 25.2972 22.3412 25.295C22.1287 25.2937 21.7336 25.4877 21.6109 25.6536C21.3922 25.9491 21.35 26.3108 21.4987 26.615C21.5581 26.7365 22.1078 27.3134 23.0338 28.2261C24.163 29.339 24.5162 29.6606 24.6588 29.706C24.89 29.7797 25.2565 29.7388 25.4525 29.6175C25.5345 29.5668 26.702 28.4321 28.0469 27.0961C30.2644 24.8933 30.4974 24.6476 30.5478 24.4585C30.7537 23.6862 30.0049 23.0155 29.2812 23.3241Z" fill="black"/>
</svg>
